HIERARCHY
ROOT Hips
{
 OFFSET 0.000000 0.000000 0.000000
 CHANNELS 6 Xposition Yposition Zposition Yrotation Xrotation Zrotation
 JOINT Chest
 {
  OFFSET 0.000000 9.585900 0.002600
  CHANNELS 3 Yrotation Xrotation Zrotation
  JOINT Chest2
  {
   OFFSET 0.000000 9.601200 -0.005300
   CHANNELS 3 Yrotation Xrotation Zrotation
   JOINT Chest3
   {
    OFFSET 0.000000 9.561800 0.000000
    CHANNELS 3 Yrotation Xrotation Zrotation
    JOINT Chest4
    {
     OFFSET 0.000000 9.552100 0.000000
     CHANNELS 3 Yrotation Xrotation Zrotation
     JOINT Neck
     {
      OFFSET 0.000000 14.453000 0.000000
      CHANNELS 3 Yrotation Xrotation Zrotation
      JOINT Head
      {
       OFFSET 0.000000 8.936500 -0.011300
       CHANNELS 3 Yrotation Xrotation Zrotation
       End Site
       {
        OFFSET 0.000000 17.073600 -0.006000
       }
      }
     }
     JOINT RightCollar
     {
      OFFSET -2.921100 9.558500 0.000000
      CHANNELS 3 Yrotation Xrotation Zrotation
      JOINT RightShoulder
      {
       OFFSET -13.519700 0.000000 0.000000
       CHANNELS 3 Yrotation Xrotation Zrotation
       JOINT RightElbow
       {
        OFFSET 0.000000 -29.696600 0.000000
        CHANNELS 3 Yrotation Xrotation Zrotation
        JOINT RightWrist
        {
         OFFSET 0.000000 -24.004700 0.000000
         CHANNELS 3 Yrotation Xrotation Zrotation
         End Site
         {
          OFFSET 0.000000 -17.728500 0.000000
         }
        }
       }
      }
     }
     JOINT LeftCollar
     {
      OFFSET 2.921100 9.558500 0.000000
      CHANNELS 3 Yrotation Xrotation Zrotation
      JOINT LeftShoulder
      {
       OFFSET 13.519700 0.000000 0.000000
       CHANNELS 3 Yrotation Xrotation Zrotation
       JOINT LeftElbow
       {
        OFFSET 0.000000 -29.696600 0.000000
        CHANNELS 3 Yrotation Xrotation Zrotation
        JOINT LeftWrist
        {
         OFFSET 0.000000 -24.004700 0.000000
         CHANNELS 3 Yrotation Xrotation Zrotation
         End Site
         {
          OFFSET 0.000000 -17.728500 0.000000
         }
        }
       }
      }
     }
    }
   }
  }
 }
 JOINT RightHip
 {
  OFFSET -7.771700 -0.012900 -0.001300
  CHANNELS 3 Yrotation Xrotation Zrotation
  JOINT RightKnee
  {
   OFFSET 0.000000 -40.869800 0.001200
   CHANNELS 3 Yrotation Xrotation Zrotation
   JOINT RightAnkle
   {
    OFFSET 0.000000 -39.717900 0.002100
    CHANNELS 3 Yrotation Xrotation Zrotation
    JOINT RightToe
    {
     OFFSET 0.000000 -4.965400 11.033500
     CHANNELS 3 Yrotation Xrotation Zrotation
     End Site
     {
      OFFSET 0.000000 -1.423100 5.872300
     }
    }
   }
  }
 }
 JOINT LeftHip
 {
  OFFSET 7.771700 -0.012900 -0.001300
  CHANNELS 3 Yrotation Xrotation Zrotation
  JOINT LeftKnee
  {
   OFFSET 0.000000 -40.869800 0.001200
   CHANNELS 3 Yrotation Xrotation Zrotation
   JOINT LeftAnkle
   {
    OFFSET 0.000000 -39.717900 0.002100
    CHANNELS 3 Yrotation Xrotation Zrotation
    JOINT LeftToe
    {
     OFFSET 0.000000 -4.965400 11.033500
     CHANNELS 3 Yrotation Xrotation Zrotation
     End Site
     {
      OFFSET 0.000000 -1.423100 5.872300
     }
    }
   }
  }
 }
}
MOTION
Frames: 9
Frame Time: 0.008333
0.000000 85.388000 0.000000 0.000000 -5.767877 0.000000 0.000000 11.653817 0.000000 0.000000 -5.885947 0.000000 0.000000 -0.000000 0.000000 0.000000 -0.000000 0.000000 0.000000 12.528835 0.000000 0.000000 0.711642 0.000000 0.000000 -0.000000 0.000000 0.000000 0.000000 -90.000000 0.000000 -2.309062 0.000000 0.000000 2.309062 0.000000 0.000000 -0.000000 0.000000 0.000000 -0.000000 90.000000 0.000000 -2.309062 0.000000 0.000000 2.309062 0.000000 0.000000 8.520406 0.000000 0.000000 1.905762 0.000000 -0.000000 -4.658285 0.000000 0.000000 -0.000000 0.000000 0.000000 8.520406 0.000000 0.000000 1.905762 0.000000 -0.000000 -4.658285 0.000000 0.000000 -0.000000 0.000000
-68.149548 46.613818 -1.468376 173.704137 -31.772894 -2.544000 -0.402707 19.288886 2.092595 -0.107564 2.304747 0.284859 -0.163809 3.811899 0.432677 -0.512526 16.665159 1.943303 -7.603842 17.863001 -0.895732 -13.699634 -2.382451 0.839843 2.611999 0.834609 -1.540855 9.177930 -23.858837 -24.101688 -141.623584 -82.259517 179.842457 4.167222 7.433132 -15.744645 -0.853804 -0.175874 1.866614 -5.238778 -4.168434 12.684076 67.056032 -70.348498 -103.871921 0.408586 8.578496 14.149402 -6.183550 -54.828342 -4.559730 -172.282428 79.584834 -161.961976 -7.878647 -14.139880 -8.550746 0.006715 -0.169627 0.049383 0.913385 -57.246885 11.932437 -116.678832 81.993105 -120.416395 6.606248 -7.376316 5.059436 0.070755 0.199713 0.042843
-68.154299 46.613216 -1.469377 173.688570 -31.774267 -2.531612 -0.394369 19.282829 2.098446 -0.108131 2.307759 0.282787 -0.165691 3.807598 0.450842 -0.512729 16.671357 1.935523 -7.705759 17.915612 -0.843986 -13.907988 -2.273354 0.948670 2.655569 0.811937 -1.552212 9.318034 -24.550758 -24.485005 -147.762648 -81.936896 -174.380132 4.206194 7.176443 -15.401839 -0.860477 -0.191942 1.885679 -5.227698 -4.177430 12.731007 67.221799 -70.543125 -103.999445 0.330715 8.787778 14.143025 -6.128166 -54.835523 -4.561841 -172.124438 79.585808 -161.837058 -7.864585 -14.118628 -8.519115 -0.018509 -0.167518 0.049066 0.945161 -57.251644 11.912421 -116.699810 81.982907 -120.427284 6.595366 -7.365465 5.057769 0.087928 0.188640 0.042770
-68.156910 46.612522 -1.470413 173.676498 -31.774950 -2.536855 -0.386269 19.277834 2.119156 -0.107068 2.307134 0.286679 -0.163315 3.812920 0.440006 -0.502587 16.669465 1.965038 -7.803622 17.961282 -0.800803 -14.099304 -2.176534 1.054373 2.661857 0.806776 -1.579943 9.511241 -25.232305 -24.866314 -153.589019 -81.558779 -168.951177 4.255584 6.919580 -15.108589 -0.866623 -0.215030 1.893183 -5.247829 -4.177021 12.759432 67.355332 -70.717389 -104.084195 0.231848 9.019219 14.116876 -6.072690 -54.839118 -4.566598 -172.027274 79.581480 -161.728166 -7.868162 -14.106011 -8.531790 -0.020573 -0.170628 0.080106 0.947251 -57.255427 11.924756 -116.718124 81.975982 -120.438120 6.599078 -7.362952 5.052033 0.091402 0.184255 0.046486
-68.160321 46.611432 -1.471668 173.664940 -31.772523 -2.538924 -0.381133 19.268076 2.138036 -0.104944 2.304962 0.292554 -0.163408 3.817769 0.439554 -0.489491 16.668127 1.990241 -7.896398 18.001763 -0.766928 -14.271318 -2.088842 1.155187 2.778818 0.746797 -1.608347 9.620062 -25.820207 -25.245865 -159.214066 -81.129945 -163.767965 4.325204 6.658931 -14.871499 -0.875738 -0.238392 1.889445 -5.285126 -4.175221 12.786622 67.463251 -70.846616 -104.139626 0.117976 9.249009 14.059832 -6.011910 -54.847688 -4.576087 -171.926832 79.575456 -161.617072 -7.863204 -14.092124 -8.579977 -0.015632 -0.175660 0.126463 0.949973 -57.259862 11.934757 -116.731877 81.972988 -120.448477 6.601173 -7.363178 5.047574 0.097881 0.183076 0.049343
-68.166595 46.610619 -1.474707 173.668065 -31.774533 -2.530230 -0.391205 19.254244 2.148397 -0.103926 2.316536 0.277105 -0.162271 3.811085 0.460350 -0.483918 16.672065 1.995940 -7.972218 18.040443 -0.725235 -14.421808 -2.006407 1.251515 2.864542 0.695933 -1.639647 9.783749 -26.387486 -25.611291 -164.625899 -80.651754 -158.836580 4.421367 6.396376 -14.684755 -0.884516 -0.261587 1.894950 -5.327425 -4.174981 12.810986 67.541811 -70.944039 -104.170785 0.008369 9.457331 13.972024 -5.935530 -54.856569 -4.604139 -171.690548 79.555986 -161.405424 -7.842776 -14.080577 -8.546778 -0.032435 -0.179322 0.103631 0.965140 -57.257731 11.913100 -116.743142 81.971739 -120.458764 6.594247 -7.362063 5.044127 0.106306 0.181573 0.052527
-68.170982 46.610575 -1.479420 173.661623 -31.784996 -2.524710 -0.381082 19.252316 2.164395 -0.111394 2.323516 0.266779 -0.161512 3.811564 0.462271 -0.467123 16.670754 2.019945 -8.036716 18.077583 -0.683508 -14.551470 -1.927624 1.344298 2.926946 0.649092 -1.672936 9.975962 -26.934031 -25.963150 -169.763975 -80.129729 -154.200337 4.541308 6.133877 -14.539574 -0.900090 -0.272018 1.885890 -5.361918 -4.190845 12.854732 67.575899 -71.021583 -104.176631 -0.076873 9.635156 13.863409 -5.863890 -54.853315 -4.624828 -171.492979 79.537042 -161.218316 -7.832832 -14.075230 -8.528658 -0.039929 -0.178284 0.123893 0.973779 -57.246125 11.909985 -116.742184 81.962582 -120.454991 6.585155 -7.365660 5.040268 0.110009 0.181839 0.053003
-68.175391 46.610383 -1.484629 173.670615 -31.792671 -2.523542 -0.375221 19.251793 2.179982 -0.119381 2.322510 0.266079 -0.161056 3.812641 0.465418 -0.456365 16.674152 2.031295 -8.089694 18.114076 -0.641856 -14.659856 -1.850935 1.433365 2.984500 0.597656 -1.703059 10.161649 -27.454065 -26.300859 -174.614446 -79.566468 -149.859121 4.668796 5.875679 -14.432116 -0.921161 -0.285507 1.880796 -5.385393 -4.208534 12.903579 67.568490 -71.078049 -104.166440 -0.137093 9.790592 13.750159 -5.802541 -54.851144 -4.653600 -171.320324 79.517812 -161.049988 -7.836414 -14.074425 -8.502198 -0.037617 -0.182565 0.110814 0.976186 -57.238203 11.900089 -116.765461 81.958658 -120.478838 6.574088 -7.367197 5.042529 0.110112 0.180259 0.051953
-68.180647 46.610578 -1.491320 173.687842 -31.803917 -2.516226 -0.375062 19.254813 2.187044 -0.101150 2.316254 0.286414 -0.183028 3.821968 0.449133 -0.450592 16.672013 2.040027 -8.130616 18.151988 -0.600430 -14.745861 -1.772589 1.517930 3.036960 0.547101 -1.729816 10.332028 -27.952065 -26.621070 -179.167826 -78.963591 -145.818171 4.792915 5.631345 -14.360938 -0.943028 -0.308785 1.894609 -5.400190 -4.218338 12.944051 67.552461 -71.055690 -104.157500 -0.241006 9.957827 13.631421 -5.724861 -54.843177 -4.711815 -171.183764 79.497894 -160.911055 -7.841843 -14.080229 -8.476630 -0.045608 -0.184195 0.096730 0.980375 -57.221536 11.864596 -116.797284 81.963649 -120.510512 6.587108 -7.376974 5.037131 0.104227 0.183831 0.050874
